<svg width="33" height="30" viewBox="0 0 33 30" fill="none" xmlns="http://www.w3.org/2000/svg">
<path d="M32.7473 26.5L28.7061 7.96787C28.4684 6.80477 27.359 6.02937 26.1705 6.02937H21.6539C21.6539 5.79675 21.7331 5.64167 21.7331 5.40905C21.7331 2.77269 19.5144 0.601562 16.8203 0.601562C14.1262 0.601562 11.9075 2.77269 11.9075 5.40905C11.9075 5.64167 11.9075 5.79675 11.9868 6.02937H7.47016C6.28158 6.02937 5.25148 6.88231 4.93453 7.96787L0.893361 26.5C0.497168 28.0508 1.76499 29.6016 3.429 29.6016H30.2116C31.8756 29.6016 33.1435 28.0508 32.7473 26.5ZM13.9677 5.33151C13.9677 3.85825 15.2355 2.61761 16.8203 2.61761C18.4051 2.61761 19.5937 3.85825 19.5937 5.33151C19.5937 5.56413 19.5937 5.71921 19.5144 5.95183H14.047C14.047 5.79675 13.9677 5.56413 13.9677 5.33151Z" fill="black"/>
</svg>
